<?xml version="1.0" encoding="UTF-8" standalone="no"?><svg xmlns:svg="http://www.w3.org/2000/svg" xmlns="http://www.w3.org/2000/svg" id="svg_die" version="1.1" viewBox="0 0 85.7 96.2" height="96.2mm" width="85.7mm"><defs id="defs2"><filter height="1.0775692" y="-0.038784608" width="1.0671769" x="-0.033588458" id="filter1146" color-interpolation-filters="sRGB"><feGaussianBlur id="feGaussianBlur1148" stdDeviation="1.1473913"/></filter></defs><metadata id="metadata5"/><g transform="translate(1.203324,-0.62554226)" id="layer1"><g id="diecube"><path d="m82.607518 68.845065a5 5 0 0 1-2.5 4.33013l-35.99234 20.78018a5 5 0 0 1-5 0L3.1228375 73.175195a5 5 0 0 1-2.49999997-4.33013l0.000001-41.56038A5 5 0 0 1 3.1228385 22.954558L39.115178 2.1743708a5 5 0 0 1 5 0l35.99234 20.7801872a5 5 0 0 1 2.5 4.330127z" style="stroke-width:0.69999999;stroke:#000"/></g><g transform="matrix(0.97879633,0,0,0.97879633,-47.730575,-72.36675)" id="g857" style="fill:none;filter:url(#filter1146);stroke-width:4.26952982;stroke:#fcffff"><g id="g877" style="fill:none;stroke-width:4.26952982;stroke:#fcffff"><path d="M50.28891 99.086029 91.28125 122.75297 132.27359 99.086029 91.281249 122.75297 91.281249 122.75297 91.281249 122.75297 91.281249 122.75297 91.281249 122.75297" id="path851" style="fill:none;stroke-width:4.26952982;stroke:#fcffff"/><path d="m91.281249 122.75297v47.33388" id="path853" style="fill:none;stroke-width:4.26952982;stroke:#fcffff"/></g></g><g transform="matrix(0.8872331,0.46132138,-0.24917425,0.96845867,0,0)" class="diedot"><ellipse ry="3.2630193" rx="3.3494415" cy="32.973003" cx="20.69883" id="face1-100"/><ellipse ry="3.2630193" rx="3.3494415" cy="33.488594" cx="31.96106" id="face1-010"/><ellipse ry="3.2630193" rx="3.3494415" cy="34.004208" cx="43.223667" id="face1-001"/><ellipse ry="3.2630193" rx="3.3494415" cy="45.724041" cx="24.279884" id="face1-200"/><ellipse ry="3.2630193" rx="3.3494415" cy="46.239635" cx="35.54211" id="face1-020"/><ellipse ry="3.2630193" rx="3.3494415" cy="46.755245" cx="46.804722" id="face1-002"/><ellipse ry="3.2630193" rx="3.3494415" cy="58.288609" cx="27.808571" id="face1-300"/><ellipse ry="3.2630193" rx="3.3494415" cy="58.804211" cx="39.070797" id="face1-030"/><ellipse ry="3.2630193" rx="3.3494415" cy="59.31982" cx="50.333401" id="face1-003"/></g><g transform="matrix(0.92673225,-0.37572243,0,1,0,0)" class="diedot"><ellipse ry="3.2630193" rx="3.5209947" cy="75.00621" cx="54.412304" id="face2-100"/><ellipse ry="3.2630193" rx="3.5209947" cy="72.843185" cx="67.988258" id="face2-010"/><ellipse ry="3.2630193" rx="3.5209947" cy="70.680191" cx="81.564209" id="face2-001"/><ellipse ry="3.2630193" rx="3.5209947" cy="89.00708" cx="54.412304" id="face2-200"/><ellipse ry="3.2630193" rx="3.5209947" cy="86.81311" cx="68.18261" id="face2-020"/><ellipse ry="3.2630193" rx="3.5209947" cy="84.681061" cx="81.564209" id="face2-002"/><ellipse ry="3.2630193" rx="3.5209947" cy="102.80321" cx="54.412304" id="face2-300"/><ellipse ry="3.2630193" rx="3.5209947" cy="100.64017" cx="67.988258" id="face2-030"/><ellipse ry="3.2630193" rx="3.5209947" cy="98.477173" cx="81.564209" id="face2-003"/></g><g transform="matrix(0.81721342,-0.57633516,0.78090728,0.62464696,0,0)" class="diedot"><ellipse ry="3.2630193" rx="3.3970881" cy="32.695415" cx="-8.0431604" id="face3-100"/><ellipse ry="3.2630193" rx="3.3970881" cy="34.084003" cx="6.2456822" id="face3-010"/><ellipse ry="3.2630193" rx="3.3970881" cy="35.433384" cx="20.13118" id="face3-001"/><ellipse ry="3.2630193" rx="3.3970881" cy="43.458942" cx="-6.2585044" id="face3-200"/><ellipse ry="3.2630193" rx="3.3970881" cy="44.847523" cx="8.0303373" id="face3-020"/><ellipse ry="3.2630193" rx="3.3970881" cy="46.196903" cx="21.915834" id="face3-002"/><ellipse ry="3.2630193" rx="3.3970881" cy="54.222828" cx="-4.4737945" id="face3-300"/><ellipse ry="3.2630193" rx="3.3970881" cy="55.611408" cx="9.8150511" id="face3-030"/><ellipse ry="3.2630193" rx="3.3970881" cy="56.960789" cx="23.700548" id="face3-003"/></g></g></svg>